<mxfile host="app.diagrams.net" agent="Mozilla/5.0 (Macintosh; Intel Mac OS X 10_15_7) AppleWebKit/537.36 (KHTML, like Gecko) Chrome/140.0.0.0 Safari/537.36 Edg/140.0.0.0" version="28.0.9">
  <diagram name="Page-1" id="d5VSCIzbNMDESyZ41HRd">
    <mxGraphModel dx="529" dy="1385" grid="1" gridSize="10" guides="1" tooltips="1" connect="1" arrows="1" fold="1" page="1" pageScale="1" pageWidth="850" pageHeight="1100" math="0" shadow="0">
      <root>
        <mxCell id="0" />
        <mxCell id="1" parent="0" />
        <mxCell id="2hq1q1hE4ae5PyoyzUcr-1" value="RNA raw data" style="rounded=0;whiteSpace=wrap;html=1;" parent="1" vertex="1">
          <mxGeometry x="30" y="50" width="80" height="40" as="geometry" />
        </mxCell>
        <mxCell id="3U4D3AY32I1sPScVAuO_-1" value="fastp&lt;div&gt;(0.24.0)&lt;/div&gt;" style="rounded=0;whiteSpace=wrap;html=1;" parent="1" vertex="1">
          <mxGeometry x="130" y="50" width="80" height="40" as="geometry" />
        </mxCell>
        <mxCell id="3U4D3AY32I1sPScVAuO_-2" value="" style="endArrow=classic;html=1;rounded=0;exitX=1;exitY=0.5;exitDx=0;exitDy=0;entryX=0;entryY=0.5;entryDx=0;entryDy=0;" parent="1" source="2hq1q1hE4ae5PyoyzUcr-1" target="3U4D3AY32I1sPScVAuO_-1" edge="1">
          <mxGeometry width="50" height="50" relative="1" as="geometry">
            <mxPoint x="350" y="260" as="sourcePoint" />
            <mxPoint x="400" y="210" as="targetPoint" />
          </mxGeometry>
        </mxCell>
        <mxCell id="3U4D3AY32I1sPScVAuO_-4" value="&lt;span style=&quot;background-color: transparent; color: light-dark(rgb(0, 0, 0), rgb(255, 255, 255));&quot;&gt;Q20&lt;/span&gt;&lt;div&gt;Len_mim:20&lt;/div&gt;" style="rounded=1;whiteSpace=wrap;html=1;" parent="1" vertex="1">
          <mxGeometry x="125" y="-10" width="90" height="40" as="geometry" />
        </mxCell>
        <mxCell id="3U4D3AY32I1sPScVAuO_-6" value="" style="triangle;whiteSpace=wrap;html=1;rotation=-90;" parent="1" vertex="1">
          <mxGeometry x="160" width="20" height="80" as="geometry" />
        </mxCell>
        <mxCell id="mpjd_PZbwG2OVMUTGQUJ-1" value="" style="endArrow=classic;html=1;rounded=0;exitX=1;exitY=0.5;exitDx=0;exitDy=0;entryX=0;entryY=0.5;entryDx=0;entryDy=0;" edge="1" parent="1">
          <mxGeometry width="50" height="50" relative="1" as="geometry">
            <mxPoint x="210" y="69.81" as="sourcePoint" />
            <mxPoint x="230" y="69.81" as="targetPoint" />
          </mxGeometry>
        </mxCell>
        <mxCell id="mpjd_PZbwG2OVMUTGQUJ-2" value="Ribodetector&lt;div&gt;(0.3.1)&lt;/div&gt;" style="rounded=0;whiteSpace=wrap;html=1;" vertex="1" parent="1">
          <mxGeometry x="230" y="50" width="80" height="40" as="geometry" />
        </mxCell>
        <mxCell id="mpjd_PZbwG2OVMUTGQUJ-3" value="min_length:50" style="rounded=1;whiteSpace=wrap;html=1;" vertex="1" parent="1">
          <mxGeometry x="225" y="-10" width="90" height="40" as="geometry" />
        </mxCell>
        <mxCell id="mpjd_PZbwG2OVMUTGQUJ-4" value="" style="triangle;whiteSpace=wrap;html=1;rotation=-90;" vertex="1" parent="1">
          <mxGeometry x="260" width="20" height="80" as="geometry" />
        </mxCell>
      </root>
    </mxGraphModel>
  </diagram>
</mxfile>
